<svg width="69" height="40" fill="none" xmlns="http://www.w3.org/2000/svg"><rect width="69" height="40" rx="5" fill="#404040"/><path d="M17.063 25.5a.278.278 0 01-.102-.016c-.02-.01-.042-.036-.063-.078a.711.711 0 01-.023-.21V14.57c0-.125.016-.205.047-.242.031-.041.078-.062.14-.062h3.907c.041 0 .073.005.093.015.026.005.047.031.063.078a.45.45 0 01.031.188v.437a.46.46 0 01-.031.196c-.016.041-.034.067-.055.078a.466.466 0 01-.101.008h-2.75c-.058 0-.086.08-.086.242v3.555c0 .036.008.075.023.117.016.036.029.054.04.054h2.288c.063 0 .11.021.141.063.031.041.047.122.047.242v.43c0 .125-.016.21-.047.258-.031.041-.078.062-.14.062h-2.282c-.015 0-.031.026-.047.078a.402.402 0 00-.023.125V24.5h2.86c.046 0 .08.005.1.016.022.005.04.028.055.07a.456.456 0 01.032.195v.438c0 .12-.016.198-.047.234-.026.031-.073.047-.14.047h-3.93zm5.578 0c-.13 0-.196-.13-.196-.39v-6.985c0-.323.063-.484.188-.484h.148c.073 0 .128.023.164.07.042.047.076.151.102.312l.125 1.024c.015.057.034.086.055.086.02 0 .036-.029.046-.086.084-.307.19-.565.32-.774.136-.208.282-.361.438-.46a1.694 1.694 0 01.93-.266c.36 0 .651.091.875.273.23.177.409.51.539 1 .13.485.195 1.14.195 1.97v4.32c0 .156-.015.26-.047.312a.153.153 0 01-.14.078h-.688a.153.153 0 01-.14-.078c-.032-.052-.047-.156-.047-.313v-4.484c0-.76-.063-1.315-.188-1.664-.125-.354-.32-.531-.586-.531-.349 0-.64.224-.875.672-.234.442-.351.979-.351 1.609v4.398c0 .157-.016.26-.047.313a.153.153 0 01-.14.078h-.68zm6.851-.008c-.11 0-.198-.172-.265-.515l-1.329-6.829a1.028 1.028 0 01-.023-.242c0-.177.037-.265.11-.265h.718c.12 0 .206.161.258.484l.953 5.656c.016.047.029.07.04.07.01 0 .02-.023.03-.07l.97-5.656c.051-.323.142-.484.273-.484h.625c.072 0 .109.08.109.242 0 .036-.01.122-.031.258l-1.32 6.836c-.068.343-.165.515-.29.515h-.828zm6.524.031a2.712 2.712 0 01-.618.063c-.234 0-.442-.02-.625-.063-.182-.041-.382-.143-.601-.304a1.83 1.83 0 01-.54-.657c-.14-.276-.26-.669-.359-1.18a10.359 10.359 0 01-.14-1.827c0-.51.023-.97.07-1.375.052-.412.117-.756.195-1.032.084-.276.188-.513.313-.71.125-.204.247-.36.367-.47.125-.114.268-.202.43-.265a1.77 1.77 0 01.445-.125c.13-.02.279-.031.445-.031.162 0 .308.01.438.031.135.016.284.057.445.125.162.063.302.151.422.266.12.11.242.265.367.468.125.198.227.435.305.711.078.276.14.62.188 1.032.052.406.078.864.078 1.375 0 .703-.05 1.312-.149 1.828-.094.51-.21.904-.351 1.18a1.872 1.872 0 01-.532.656c-.213.161-.411.263-.593.304zm-.625-.82a.842.842 0 00.445-.11c.125-.077.242-.223.352-.437.109-.213.19-.536.242-.968.057-.433.086-.977.086-1.633 0-.662-.029-1.209-.086-1.64-.052-.433-.136-.75-.25-.954-.11-.208-.224-.349-.344-.422a.842.842 0 00-.445-.11.884.884 0 00-.453.11c-.12.073-.235.214-.344.422-.11.208-.193.529-.25.96a13.99 13.99 0 00-.078 1.634c0 .656.026 1.2.078 1.633.052.432.133.755.242.968.11.214.224.36.344.438.125.073.278.11.46.11zm4.39 1.906c.14 0 .271-.12.39-.359.126-.24.188-.531.188-.875 0-.135-.052-.422-.156-.86l-1.64-6.413a1.295 1.295 0 01-.016-.172c0-.193.039-.29.117-.29h.742c.14 0 .232.13.274.391l1.18 5.344c.02.057.033.086.038.086.021 0 .032-.029.032-.086l.968-5.32c.037-.276.123-.414.258-.414h.532c.088 0 .132.104.132.312 0 .01-.008.07-.023.18L41.39 25.39c-.146.807-.331 1.364-.555 1.672-.219.307-.51.468-.875.484h-.102c-.416 0-.687-.104-.812-.313-.026-.047-.04-.14-.04-.28 0-.324.058-.485.173-.485.015 0 .104.023.265.07.162.047.274.07.336.07zm5.117-5.5h2.079c.01 0 .015-.047.015-.14-.031-.88-.127-1.524-.289-1.93-.161-.411-.411-.617-.75-.617-.63 0-.99.755-1.078 2.265 0 .282.008.422.023.422zm2.961 2.47c0 .577-.153 1.056-.46 1.437-.303.38-.753.57-1.352.57-1.526 0-2.29-1.341-2.29-4.023 0-.662.045-1.24.134-1.735.093-.5.21-.89.351-1.172a2.09 2.09 0 01.516-.687c.203-.177.398-.292.586-.344.192-.057.4-.086.625-.086 1.302 0 1.953 1.234 1.953 3.703 0 .375-.078.563-.234.563h-2.766c-.037 0-.055.054-.055.164 0 .515.04.971.117 1.367.078.396.211.724.399.984.192.256.43.383.71.383a.841.841 0 00.485-.133.801.801 0 00.297-.398 2.32 2.32 0 00.133-.438c.026-.125.05-.284.07-.476.01-.104.044-.156.102-.156h.53c.1 0 .15.106.15.32v.156zm1.75 1.921c-.13 0-.195-.167-.195-.5v-6.758c0-.4.052-.601.156-.601h.22c.056 0 .1.036.132.109a2 2 0 01.094.39l.14 1.079c.021.088.04.133.055.133.02 0 .036-.045.047-.133.14-.516.317-.917.531-1.203.219-.287.445-.433.68-.438h.125c.11 0 .185.029.226.086.042.057.063.154.063.29v.562a.65.65 0 01-.031.25c-.021.036-.063.054-.125.054-.193.01-.305.021-.336.032-.188.041-.355.205-.5.492a3.653 3.653 0 00-.313.953 5.328 5.328 0 00-.101 1.015V25c0 .333-.063.5-.188.5h-.68z" fill="beige"/></svg>