<svg width="67" height="40" fill="none" xmlns="http://www.w3.org/2000/svg"><rect width="67" height="40" rx="5" fill="#404040"/><path d="M17.063 25.5a.278.278 0 01-.102-.016c-.02-.015-.042-.052-.063-.109a.97.97 0 01-.023-.242v-10.5c0-.151.016-.25.047-.297a.158.158 0 01.14-.07h.883c.042 0 .073.007.094.023.026.01.047.044.063.102.02.057.03.138.03.242v9.703c0 .11.035.164.102.164h2.047c.047 0 .081.005.102.016.02.005.041.028.062.07a.377.377 0 01.032.18v.453c0 .12-.016.198-.047.234-.032.031-.081.047-.149.047h-3.218zm4.851 0a.278.278 0 01-.102-.016c-.02-.015-.041-.052-.062-.109a.97.97 0 01-.023-.242v-10.5c0-.151.015-.25.046-.297a.158.158 0 01.141-.07h.875c.068 0 .117.023.148.07.032.042.047.14.047.297v10.5c0 .156-.015.258-.047.305-.03.041-.08.062-.148.062h-.875zm4.148-6.242h1.165c.562 0 .97-.164 1.226-.492.255-.334.383-.852.383-1.555 0-.39-.04-.714-.117-.969a1.177 1.177 0 00-.36-.601 1.319 1.319 0 00-.562-.29 3.167 3.167 0 00-.805-.085h-.93c-.046 0-.07.044-.07.132v3.688c0 .115.024.172.07.172zm-1.14 6.242c-.063 0-.11-.02-.14-.063-.032-.046-.048-.14-.048-.28V14.624c0-.104.008-.182.024-.234.02-.058.041-.091.062-.102a.195.195 0 01.102-.023h2.375a7.3 7.3 0 01.633.023c.182.01.375.042.578.094.208.047.385.112.531.195.146.084.29.198.43.344.14.14.252.312.336.515.088.204.159.451.21.743.053.291.079.622.079.992 0 .51-.058.937-.172 1.281-.115.344-.258.6-.43.766a2.13 2.13 0 01-.656.406c-.02.02-.031.04-.031.055 0 .02.008.03.023.03.156.074.279.139.367.196.094.052.2.14.32.266.126.125.222.265.29.422.067.15.127.357.18.617.057.26.09.562.1.906.011.281.017 1.274.017 2.977 0 .27-.053.406-.157.406l-.922.008c-.099 0-.148-.128-.148-.383-.005-.047-.018-.63-.04-1.75-.015-1.12-.036-1.737-.062-1.852-.036-.854-.466-1.28-1.289-1.28H26.07c-.052 0-.078.049-.078.148v4.765c0 .14-.015.235-.047.282-.03.041-.08.062-.148.062h-.875zm7.047 0a.278.278 0 01-.102-.016c-.02-.01-.041-.036-.062-.078a.71.71 0 01-.024-.21V14.57c0-.125.016-.205.047-.242.031-.041.078-.062.14-.062h3.907c.042 0 .073.005.094.015.026.005.047.031.062.078a.433.433 0 01.032.188v.437c0 .089-.01.154-.032.196-.015.041-.034.067-.054.078a.467.467 0 01-.102.008h-2.75c-.057 0-.086.08-.086.242v3.555c0 .036.008.075.023.117.016.036.03.054.04.054h2.289c.062 0 .109.021.14.063.032.041.047.122.047.242v.43c0 .125-.016.21-.047.258-.031.041-.078.062-.14.062h-2.282c-.015 0-.03.026-.047.078a.402.402 0 00-.023.125V24.5h2.86c.046 0 .08.005.101.016.02.005.04.028.055.07a.46.46 0 01.03.195v.438c0 .12-.015.198-.046.234-.026.031-.073.047-.14.047h-3.93zm7.898 0a.278.278 0 01-.101-.016c-.021-.015-.042-.052-.063-.109a.97.97 0 01-.023-.242v-10.5c0-.151.015-.25.047-.297a.158.158 0 01.14-.07h.875c.068 0 .117.023.149.07.03.042.047.14.047.297v10.5c0 .156-.016.258-.047.305-.032.041-.081.062-.149.062h-.875zm5.656.11c-.192 0-.362-.008-.507-.024a2.798 2.798 0 01-.493-.086 1.918 1.918 0 01-.468-.188 2.29 2.29 0 01-.805-.852 5.278 5.278 0 01-.305-.726 6.489 6.489 0 01-.242-.984c-.062-.365-.112-.79-.148-1.273a21.442 21.442 0 01-.055-1.602c0-.719.029-1.365.086-1.938.062-.578.143-1.065.242-1.46.104-.396.234-.737.39-1.024.162-.291.324-.518.485-.68.167-.166.362-.296.586-.39a2.34 2.34 0 01.625-.188 4.34 4.34 0 01.664-.047c.469 0 .854.068 1.156.204a.232.232 0 00.032.023c.015.01.028.026.039.047a.13.13 0 01.015.07v.758c0 .063-.018.094-.054.094a1.748 1.748 0 00-.688-.149 2.765 2.765 0 00-.289-.015c-.245 0-.458.028-.64.086-.178.052-.36.174-.547.367-.183.187-.334.448-.454.781-.114.333-.208.792-.28 1.375a16.76 16.76 0 00-.11 2.086c0 .823.031 1.526.094 2.11.062.578.143 1.036.242 1.374.104.334.242.594.414.782.177.187.351.31.523.367.172.052.383.078.633.078.38 0 .711-.05.992-.148.005 0 .016.02.032.062.02.037.03.06.03.07v.735a.29.29 0 01-.03.078.299.299 0 01-.032.062c-.291.11-.669.164-1.133.164zm2.844-.11a.278.278 0 01-.101-.016c-.021-.015-.042-.052-.063-.109a.97.97 0 01-.023-.242v-10.5c0-.151.015-.25.047-.297a.158.158 0 01.14-.07h.875c.068 0 .117.023.149.07.03.042.047.14.047.297v10.5c0 .156-.016.258-.047.305-.032.041-.081.062-.149.062h-.875z" fill="beige"/></svg>