<svg width="251" height="35" fill="none" xmlns="http://www.w3.org/2000/svg"><path d="M4.14 34V9.004H.464V3.063H14v5.94h-3.674V34H4.139zm65.644 0V3.062h6.152V14.12h2.918V3.063h6.152V34h-6.152V19.973h-2.918V34h-6.152zm92.141.281c-2.578 0-4.477-.72-5.696-2.162-1.218-1.453-1.828-3.586-1.828-6.398V3.062h6.012v22.413c0 .515.029 1.013.088 1.494.059.468.193.855.404 1.16.211.305.551.457 1.02.457.48 0 .826-.146 1.037-.44.211-.304.34-.697.387-1.177.058-.48.087-.979.087-1.494V3.062h6.012v22.659c0 2.812-.609 4.945-1.828 6.398-1.219 1.441-3.117 2.162-5.695 2.162zm29.755 0c-4.418 0-6.627-3.164-6.627-9.492V11.447c0-5.777 2.531-8.666 7.593-8.666 2.086 0 3.686.422 4.799 1.266 1.114.832 1.881 2.05 2.303 3.656.422 1.606.633 3.563.633 5.871h-6.047v-2.742c0-.668-.094-1.225-.281-1.67-.176-.457-.551-.685-1.125-.685-.715 0-1.19.24-1.424.72a3.711 3.711 0 00-.334 1.582v14.994c0 .832.105 1.512.316 2.04.223.515.651.773 1.283.773.657 0 1.09-.258 1.301-.773.223-.528.334-1.22.334-2.075v-4.412h-1.652v-5.344h7.558V34h-2.478l-1.055-2.602c-1.078 1.922-2.777 2.883-5.097 2.883z" fill="#8B0000"/><path d="M18.243 34V3.062h6.153V14.12h2.918V3.063h6.152V34h-6.152V19.973h-2.918V34h-6.153zm27.762.281c-1.875 0-3.369-.351-4.482-1.054-1.113-.704-1.91-1.717-2.39-3.041-.481-1.325-.721-2.918-.721-4.782v-10.6c0-2.449.703-4.3 2.11-5.554 1.405-1.266 3.339-1.898 5.8-1.898 5.062 0 7.594 2.484 7.594 7.453v1.916c0 2.32-.024 3.879-.07 4.675h-9.141v5.098c0 .469.029.932.088 1.389.058.445.187.814.386 1.107.211.293.545.44 1.002.44.657 0 1.067-.282 1.23-.844.165-.574.247-1.318.247-2.232v-2.532h6.258v1.494c0 1.97-.246 3.622-.739 4.957-.48 1.325-1.3 2.327-2.46 3.006-1.149.668-2.72 1.002-4.712 1.002zM44.67 18.268h2.989v-3.551c0-.95-.117-1.63-.352-2.04-.234-.421-.586-.632-1.054-.632-.504 0-.897.2-1.178.598-.27.398-.404 1.09-.404 2.074v3.55zM94.963 34.28c-1.465 0-2.584-.34-3.358-1.02-.761-.679-1.283-1.61-1.564-2.794-.281-1.184-.422-2.526-.422-4.026 0-1.605.158-2.918.475-3.937.316-1.031.855-1.875 1.617-2.531.773-.657 1.834-1.213 3.182-1.67l3.902-1.336V14.26c0-1.418-.463-2.127-1.389-2.127-.843 0-1.265.574-1.265 1.723v1.582h-6.118a2.917 2.917 0 01-.017-.352v-.51c0-2.625.615-4.482 1.846-5.572 1.242-1.102 3.205-1.652 5.888-1.652 1.406 0 2.666.252 3.78.755 1.113.493 1.992 1.225 2.636 2.198.657.972.985 2.174.985 3.603V34h-6.258v-3.129c-.305 1.102-.809 1.945-1.512 2.531a3.656 3.656 0 01-2.408.88zm2.478-4.886c.516 0 .868-.217 1.055-.65a3.5 3.5 0 00.281-1.407V19.99c-.867.352-1.54.797-2.021 1.336-.48.527-.72 1.307-.72 2.338v3.393c0 1.558.468 2.338 1.406 2.338zm18.06 4.886c-1.7 0-2.848-.357-3.446-1.072-.586-.727-.879-1.834-.879-3.322V13.45H109.4V8.652h1.775v-5.59h6.118v5.59h1.775v4.8h-1.775V28.41c0 .434.07.738.21.914.141.176.411.264.809.264.281 0 .533-.024.756-.07v4.289c-.141.046-.58.134-1.318.263-.739.14-1.489.211-2.25.211zm15.492 0c-1.875 0-3.369-.351-4.482-1.054-1.114-.704-1.91-1.717-2.391-3.041-.48-1.325-.721-2.918-.721-4.782v-10.6c0-2.449.704-4.3 2.11-5.554 1.406-1.266 3.34-1.898 5.801-1.898 5.062 0 7.593 2.484 7.593 7.453v1.916c0 2.32-.023 3.879-.07 4.675h-9.141v5.098c0 .469.03.932.088 1.389.059.445.188.814.387 1.107.211.293.545.44 1.002.44.656 0 1.066-.282 1.23-.844.164-.574.247-1.318.247-2.232v-2.532h6.257v1.494c0 1.97-.246 3.622-.738 4.957-.48 1.325-1.301 2.327-2.461 3.006-1.148.668-2.719 1.002-4.711 1.002zm-1.336-16.013h2.989v-3.551c0-.95-.118-1.63-.352-2.04-.234-.421-.586-.632-1.055-.632-.504 0-.896.2-1.177.598-.27.398-.405 1.09-.405 2.074v3.55zm75.495-12.252V.777h6.293v5.239h-6.293zm0 27.984V7.633h6.293V34h-6.293zm14.666 0l-4.236-26.367h6.31l1.512 17.613 1.705-17.613h6.293L227.095 34h-7.278zm23.139.281c-1.875 0-3.369-.351-4.482-1.054-1.113-.704-1.91-1.717-2.391-3.041-.48-1.325-.72-2.918-.72-4.782v-10.6c0-2.449.703-4.3 2.109-5.554 1.406-1.266 3.34-1.898 5.801-1.898 5.062 0 7.594 2.484 7.594 7.453v1.916c0 2.32-.024 3.879-.071 4.675h-9.14v5.098c0 .469.029.932.088 1.389.058.445.187.814.386 1.107.211.293.545.44 1.002.44.656 0 1.067-.282 1.231-.844.164-.574.246-1.318.246-2.232v-2.532h6.258v1.494c0 1.97-.247 3.622-.739 4.957-.48 1.325-1.3 2.327-2.461 3.006-1.148.668-2.718 1.002-4.711 1.002zm-1.336-16.013h2.989v-3.551c0-.95-.117-1.63-.352-2.04-.234-.421-.586-.632-1.054-.632-.504 0-.897.2-1.178.598-.27.398-.405 1.09-.405 2.074v3.55z" fill="#000"/></svg>