<svg width="59" height="40" fill="none" xmlns="http://www.w3.org/2000/svg"><rect width="59" height="40" rx="5" fill="#404040"/><path d="M21.547 22.492c0 .917-.24 1.667-.719 2.25-.474.578-1.107.867-1.898.867-1.089 0-1.94-.476-2.555-1.43a.267.267 0 01-.04-.156c0-.145.063-.302.188-.468.13-.167.253-.25.368-.25.047 0 .088.02.125.062.557.776 1.192 1.164 1.906 1.164.448 0 .8-.174 1.055-.523.255-.354.382-.813.382-1.375 0-.495-.093-.888-.28-1.18-.188-.291-.475-.568-.86-.828l-1.032-.688a4.678 4.678 0 01-.562-.43 4.432 4.432 0 01-.477-.554 2.693 2.693 0 01-.367-.789 3.877 3.877 0 01-.125-1.016c0-.89.224-1.611.672-2.164.448-.557 1.042-.836 1.781-.836.938 0 1.675.342 2.211 1.024.047.062.07.135.07.219 0 .156-.064.312-.195.468-.125.157-.234.235-.328.235-.031 0-.055-.01-.07-.032-.443-.546-.953-.82-1.531-.82-.422 0-.766.167-1.032.5-.26.334-.39.748-.39 1.242 0 .318.052.602.156.852.11.245.234.437.375.578.14.14.323.284.547.43l1.023.664c1.068.693 1.602 1.687 1.602 2.984zm1.469 3.008a.277.277 0 01-.102-.016c-.02-.01-.042-.036-.062-.078a.707.707 0 01-.024-.21V14.57c0-.125.016-.205.047-.242.031-.041.078-.062.14-.062h3.907a.23.23 0 01.094.015c.026.005.047.031.062.078a.435.435 0 01.031.188v.437a.48.48 0 01-.03.196c-.017.041-.035.067-.056.078a.465.465 0 01-.101.008h-2.75c-.057 0-.086.08-.086.242v3.555c0 .036.008.075.023.117.016.036.029.054.04.054h2.288c.063 0 .11.021.141.063.031.041.047.122.047.242v.43c0 .125-.016.21-.047.258-.031.041-.078.062-.14.062h-2.282c-.015 0-.031.026-.047.078a.402.402 0 00-.023.125V24.5h2.86c.046 0 .08.005.1.016.022.005.04.028.056.07a.46.46 0 01.03.195v.438c0 .12-.015.198-.046.234-.026.031-.073.047-.14.047h-3.93zm5.664 0c-.13 0-.196-.135-.196-.406v-10.43c0-.156.016-.26.047-.312a.157.157 0 01.149-.086h.867c.094 0 .174.086.242.257l3.055 7.836c.01.021.023.008.039-.039a.139.139 0 00.015-.062v-7.594c0-.156.016-.26.047-.312a.175.175 0 01.157-.086h.71c.126 0 .188.132.188.398v10.477c0 .104-.01.185-.031.242-.016.052-.037.086-.063.101a.217.217 0 01-.093.016h-.633c-.042 0-.094-.034-.157-.102a.688.688 0 01-.14-.226l-3.227-8.094c-.01-.031-.026-.02-.047.031a.147.147 0 00-.007.047v7.938c0 .156-.019.263-.055.32a.157.157 0 01-.149.086h-.718zm7.258 0c-.063 0-.11-.02-.141-.063-.031-.041-.047-.13-.047-.265V14.547c0-.115.016-.19.047-.227.031-.036.078-.054.14-.054h2.547c.375 0 .706.054.993.164.291.11.557.294.796.554.245.26.446.602.602 1.024.161.416.284.945.367 1.586.089.635.133 1.38.133 2.234 0 .714-.02 1.344-.063 1.89a12.158 12.158 0 01-.18 1.423 4.028 4.028 0 01-.312 1.023 3.05 3.05 0 01-.422.68 1.596 1.596 0 01-.562.406c-.224.099-.45.167-.68.203a5.986 5.986 0 01-.812.047h-2.407zm1.164-1h1.195c.479 0 .846-.133 1.101-.398.256-.271.44-.737.555-1.399.115-.661.172-1.617.172-2.867 0-1.13-.065-2.031-.195-2.703-.13-.672-.323-1.151-.578-1.438-.256-.286-.594-.43-1.016-.43h-1.242c-.058 0-.086.053-.086.157v8.906c0 .115.031.172.094.172z" fill="beige"/></svg>