<svg width="86" height="40" fill="none" xmlns="http://www.w3.org/2000/svg"><rect width="86" height="40" rx="5" fill="#404040"/><path d="M18.203 19.258h1.164c.563 0 .971-.164 1.227-.492.255-.334.383-.852.383-1.555 0-.39-.04-.714-.118-.969-.073-.26-.192-.46-.359-.601a1.319 1.319 0 00-.563-.29 3.167 3.167 0 00-.804-.085h-.93c-.047 0-.07.044-.07.132v3.688c0 .115.023.172.07.172zm-1.14 6.242c-.063 0-.11-.02-.141-.063-.031-.046-.047-.14-.047-.28V14.624c0-.104.008-.182.023-.234.021-.058.042-.091.063-.102a.195.195 0 01.102-.023h2.375a7.3 7.3 0 01.632.023c.183.01.375.042.578.094.209.047.386.112.532.195.146.084.289.198.43.344.14.14.252.312.335.515.089.204.16.451.211.743.052.291.078.622.078.992 0 .51-.057.937-.172 1.281-.114.344-.257.6-.43.766-.171.161-.39.297-.655.406-.021.02-.032.04-.032.055 0 .02.008.03.024.03.156.074.278.139.367.196.094.052.2.14.32.266.125.125.222.265.29.422.067.15.127.357.179.617.057.26.091.562.102.906.01.281.015 1.274.015 2.977 0 .27-.052.406-.156.406l-.922.008c-.099 0-.148-.128-.148-.383a96.95 96.95 0 01-.04-1.75c-.015-1.12-.036-1.737-.062-1.852-.036-.854-.466-1.28-1.289-1.28h-1.414c-.052 0-.078.049-.078.148v4.765c0 .14-.016.235-.047.282-.031.041-.08.062-.148.062h-.875zm7.046 0a.278.278 0 01-.101-.016c-.021-.01-.042-.036-.063-.078a.711.711 0 01-.023-.21V14.57c0-.125.015-.205.047-.242.031-.041.078-.062.14-.062h3.907c.041 0 .073.005.093.015.026.005.047.031.063.078a.45.45 0 01.031.188v.437a.46.46 0 01-.031.196c-.016.041-.034.067-.055.078a.466.466 0 01-.101.008h-2.75c-.058 0-.086.08-.086.242v3.555c0 .036.008.075.023.117.016.036.029.054.04.054h2.288c.063 0 .11.021.14.063.032.041.048.122.048.242v.43c0 .125-.016.21-.047.258-.031.041-.078.062-.14.062H25.25c-.016 0-.031.026-.047.078a.402.402 0 00-.023.125V24.5h2.86c.046 0 .08.005.1.016.021.005.04.028.055.07a.46.46 0 01.032.195v.438c0 .12-.016.198-.047.234-.026.031-.073.047-.14.047h-3.93zm6.797-3.406h1.82c.027 0 .04-.037.04-.11 0-.03-.006-.05-.016-.054l-.906-6.211-.016-.047c-.015 0-.023.013-.023.039l-.992 6.195a.292.292 0 00-.008.07c0 .079.034.118.101.118zM29.25 25.5c-.078 0-.117-.078-.117-.234v-.11c0-.052.002-.093.008-.125l1.836-10.36c.052-.27.145-.405.28-.405h1.212c.14 0 .234.135.281.406l1.773 10.36a.78.78 0 00.016.124.454.454 0 01.023.117c0 .151-.041.227-.124.227h-.97c-.14 0-.228-.117-.265-.352l-.32-2.101c-.021-.089-.044-.133-.07-.133h-2.141c-.021 0-.042.047-.063.14l-.359 2.094c-.026.141-.057.235-.094.282a.178.178 0 01-.148.07h-.758zm6.734 0c-.062 0-.109-.02-.14-.063-.032-.041-.047-.13-.047-.265V14.547c0-.115.016-.19.047-.227.031-.036.078-.054.14-.054h2.547c.375 0 .706.054.992.164.292.11.558.294.797.554.245.26.446.602.602 1.024.161.416.284.945.367 1.586.089.635.133 1.38.133 2.234 0 .714-.021 1.344-.063 1.89a12.158 12.158 0 01-.18 1.423 4.028 4.028 0 01-.312 1.023 3.05 3.05 0 01-.422.68 1.596 1.596 0 01-.562.406c-.224.099-.45.167-.68.203a5.987 5.987 0 01-.812.047h-2.407zm1.164-1h1.196c.479 0 .846-.133 1.101-.398.255-.271.44-.737.555-1.399.115-.661.172-1.617.172-2.867 0-1.13-.065-2.031-.195-2.703-.13-.672-.323-1.151-.579-1.438-.255-.286-.593-.43-1.015-.43H37.14c-.058 0-.086.053-.086.157v8.906c0 .115.03.172.093.172zm8.25 1c-.067 0-.117-.02-.148-.063-.031-.046-.047-.148-.047-.304v-10.5c0-.156.016-.255.047-.297.031-.047.08-.07.148-.07h.86c.047 0 .083.007.11.023.025.01.046.044.062.102.02.057.03.138.03.242v4.351a.29.29 0 00.024.11c.016.031.029.047.04.047h2.757c.016 0 .034-.019.055-.055a.262.262 0 00.031-.117v-4.336c0-.156.016-.255.047-.297.031-.047.083-.07.156-.07h.867c.068 0 .115.023.141.07.031.042.047.14.047.297v10.5c0 .156-.016.258-.047.305-.026.041-.073.062-.14.062h-.868c-.073 0-.127-.02-.164-.063-.031-.046-.047-.148-.047-.304v-4.82a.207.207 0 00-.03-.102c-.017-.037-.03-.055-.04-.055h-2.758c-.01 0-.023.018-.039.055a.208.208 0 00-.023.094v4.828c0 .15-.019.25-.055.297-.031.047-.08.07-.148.07h-.868zm7.164 0a.278.278 0 01-.101-.016c-.02-.01-.042-.036-.063-.078a.711.711 0 01-.023-.21V14.57c0-.125.016-.205.047-.242.031-.041.078-.062.14-.062h3.907c.041 0 .073.005.093.015.027.005.047.031.063.078a.45.45 0 01.031.188v.437a.46.46 0 01-.031.196c-.016.041-.034.067-.055.078a.466.466 0 01-.101.008h-2.75c-.058 0-.086.08-.086.242v3.555c0 .036.008.075.023.117.016.036.029.054.04.054h2.288c.063 0 .11.021.141.063.031.041.047.122.047.242v.43c0 .125-.016.21-.047.258-.031.041-.078.062-.14.062h-2.282c-.016 0-.031.026-.047.078a.402.402 0 00-.023.125V24.5h2.86c.046 0 .08.005.1.016.022.005.04.028.055.07a.456.456 0 01.032.195v.438c0 .12-.016.198-.047.234-.026.031-.073.047-.14.047h-3.93zm6.797-6.242h1.164c.563 0 .972-.164 1.227-.492.255-.334.383-.852.383-1.555 0-.39-.04-.714-.117-.969a1.177 1.177 0 00-.36-.601 1.318 1.318 0 00-.562-.29 3.167 3.167 0 00-.805-.085h-.93c-.047 0-.07.044-.07.132v3.688c0 .115.023.172.07.172zM58.22 25.5c-.063 0-.11-.02-.14-.063-.032-.046-.048-.14-.048-.28V14.624c0-.104.008-.182.024-.234.02-.058.041-.091.062-.102a.195.195 0 01.102-.023h2.375c.245 0 .456.007.633.023.182.01.375.042.578.094.208.047.385.112.53.195.147.084.29.198.43.344.141.14.253.312.337.515.088.204.158.451.21.743.053.291.079.622.079.992 0 .51-.058.937-.172 1.281-.115.344-.258.6-.43.766a2.13 2.13 0 01-.656.406c-.021.02-.031.04-.031.055 0 .02.007.03.023.03.156.074.279.139.367.196.094.052.2.14.32.266.126.125.222.265.29.422.067.15.127.357.18.617.057.26.09.562.1.906.011.281.016 1.274.016 2.977 0 .27-.052.406-.156.406l-.922.008c-.099 0-.148-.128-.148-.383-.005-.047-.018-.63-.04-1.75-.015-1.12-.036-1.737-.062-1.852-.036-.854-.466-1.28-1.289-1.28h-1.414c-.052 0-.078.049-.078.148v4.765c0 .14-.016.235-.047.282-.031.041-.08.062-.148.062h-.875zm7.047 0a.277.277 0 01-.102-.016c-.02-.01-.042-.036-.062-.078a.707.707 0 01-.024-.21V14.57c0-.125.016-.205.047-.242.031-.041.078-.062.14-.062h3.907a.23.23 0 01.094.015c.026.005.046.031.062.078a.435.435 0 01.031.188v.437a.48.48 0 01-.03.196c-.016.041-.035.067-.056.078a.465.465 0 01-.101.008h-2.75c-.057 0-.086.08-.086.242v3.555c0 .036.008.075.023.117.016.036.029.054.04.054h2.288c.063 0 .11.021.141.063.031.041.047.122.047.242v.43c0 .125-.016.21-.047.258-.031.041-.078.062-.14.062h-2.282c-.015 0-.031.026-.047.078a.402.402 0 00-.023.125V24.5h2.86c.046 0 .08.005.1.016.022.005.04.028.056.07a.46.46 0 01.03.195v.438c0 .12-.015.198-.046.234-.026.031-.073.047-.14.047h-3.93z" fill="beige"/></svg>