<svg width="50" height="80" fill="none" xmlns="http://www.w3.org/2000/svg"><path d="M27.52 6.501V76.5c0 .928-.263 1.819-.732 2.475C26.32 79.63 25.684 80 25.021 80c-.663 0-1.299-.369-1.768-1.025-.468-.656-.732-1.547-.732-2.475V6.501c0-.928.264-1.818.732-2.474C23.723 3.37 24.358 3 25.021 3s1.299.37 1.767 1.026c.47.656.732 1.546.732 2.474z" fill="#000"/><path d="M25 8.455L4.273 37.484c-.47.657-1.106 1.026-1.77 1.026-.664 0-1.3-.37-1.77-1.026-.47-.659-.733-1.55-.733-2.479 0-.93.264-1.821.733-2.478l22.497-31.5a2.64 2.64 0 01.812-.76C24.346.09 24.672 0 25 0c.329 0 .654.09.958.267.304.177.58.435.812.761l22.497 31.5c.47.657.733 1.548.733 2.478 0 .929-.264 1.82-.733 2.477-.47.658-1.106 1.027-1.77 1.027-.664 0-1.3-.37-1.77-1.026L25 8.454z" fill="#000"/></svg>